<svg width="731" height="283" viewBox="0 0 731 283" fill="none" xmlns="http://www.w3.org/2000/svg">
<circle cx="141.5" cy="141.5" r="141.5" fill="url(#paint0_linear_11_2)"/>
<path fill-rule="evenodd" clip-rule="evenodd" d="M129.952 32.8298C129.956 33.2864 130.099 37.2582 130.268 41.6564C130.438 46.0546 130.679 52.6161 130.804 56.2375C130.983 61.4547 131.12 62.8835 131.465 63.1168C131.876 63.3953 136.543 63.1991 136.854 62.8904C136.93 62.8147 136.953 60.5958 136.904 57.9603L136.816 53.1677L138.12 53.0053C138.837 52.916 140.236 52.7585 141.229 52.655C145.001 52.2624 148.04 50.0629 149.487 46.6759C150.211 44.9818 150.347 40.4056 149.726 38.6382C148.725 35.7913 147.179 34.0275 144.476 32.647C143.294 32.0435 142.763 32 136.576 32H129.944L129.952 32.8298ZM163.508 33.7946C163.243 34.2243 161.629 39.2607 159.442 46.4846C158.914 48.2272 158.239 50.3999 157.943 51.3128C157.646 52.2256 156.965 54.3983 156.428 56.1409C155.892 57.8836 155.197 60.1163 154.884 61.1022C154.571 62.0884 154.417 62.9831 154.542 63.0908C154.668 63.1982 156.193 63.7263 157.931 64.2644C159.669 64.8021 161.429 65.357 161.843 65.4974C162.257 65.6377 164.423 66.3142 166.658 67.0007C168.892 67.687 171.047 68.3831 171.446 68.5476C171.976 68.7657 172.269 68.7401 172.53 68.4534C172.854 68.0976 173.851 65.0474 173.979 64.0199C174.035 63.5691 172.887 63.1261 165.981 60.932C163.705 60.209 161.843 59.4682 161.843 59.2859C161.843 58.9193 163.205 54.3572 163.705 53.0479C164.071 52.0901 164.104 52.0835 165.82 52.6257C166.529 52.8499 168.125 53.34 169.366 53.7148C170.607 54.0896 171.934 54.5172 172.314 54.665C174.034 55.334 174.386 55.0899 175.163 52.6858C175.563 51.4491 175.808 50.304 175.707 50.141C175.517 49.8311 175.068 49.6706 169.291 47.8428C167.346 47.2275 165.755 46.6019 165.755 46.4526C165.755 45.7999 167.647 40.4493 167.878 40.4493C168.019 40.4493 168.445 40.5767 168.825 40.7324C169.205 40.8881 171.345 41.58 173.579 42.2696C175.814 42.9594 178.065 43.6676 178.582 43.8438C179.099 44.0201 179.71 44.0919 179.941 44.0032C180.171 43.9148 180.66 42.8447 181.029 41.6259C181.83 38.9779 181.842 38.9954 178.695 38.0609C177.454 37.6921 176.1 37.2727 175.686 37.1287C175.272 36.9848 173.511 36.4374 171.774 35.912C170.036 35.3867 167.629 34.6311 166.426 34.2327C163.976 33.4222 163.758 33.3893 163.508 33.7946ZM112.941 35.6251C111.209 36.231 110.51 36.6239 110.451 37.0249C110.406 37.3318 111.262 40.1627 112.352 43.3161C117.363 57.8043 117.441 58.1347 116.257 59.9459C115.353 61.3306 112.264 62.7797 110.218 62.7797C108.837 62.7797 106.881 61.6593 106.374 60.5786C105.846 59.4543 105.089 57.357 103.464 52.5198C101.114 45.5268 99.4799 40.8965 99.2864 40.6859C99.1052 40.4883 94.2945 41.9968 93.925 42.3676C93.7372 42.5556 94.3252 44.4272 96.8305 51.6145C97.8428 54.519 99.0098 57.9138 99.4233 59.1586C101.204 64.5157 103.279 66.9899 106.973 68.1589C109.416 68.932 110.924 68.98 113.302 68.3599C118.838 66.9162 122.673 62.8509 122.963 58.1175C123.06 56.5347 122.853 55.6295 121.408 51.3128C117.398 39.3274 116.031 35.4482 115.701 35.1263C115.436 34.8682 114.748 34.9926 112.941 35.6251ZM142.595 37.8907C145.294 39.2903 145.383 45.0168 142.728 46.493C142.228 46.7706 140.705 47.0956 139.343 47.2145L136.866 47.4312L136.565 46.6367C136.399 46.1994 136.263 43.9495 136.263 41.6368V37.4317H138.987C140.835 37.4317 141.994 37.579 142.595 37.8907ZM193.375 50.2285C192.004 51.9555 189.36 55.3165 187.498 57.6971C185.637 60.0777 182.559 63.9943 180.659 66.4008C178.759 68.8074 177.202 70.9345 177.198 71.1276C177.192 71.4231 180.216 74.0221 181.284 74.6392C181.475 74.7494 182.858 73.233 184.541 71.0685C186.15 68.9993 187.63 67.3061 187.829 67.3061C188.028 67.3061 188.513 67.5321 188.906 67.8083L189.621 68.3107L189.433 74.5952L189.245 80.8794L191.87 82.9986C194.949 85.4852 194.867 85.5431 194.915 80.857C194.932 79.2646 195.032 76.5488 195.137 74.8218L195.329 71.6817L197.169 71.6732C201.432 71.6536 205.699 68.1517 207.257 63.3938C208.004 61.1131 208.031 60.3623 207.441 58.3698C206.543 55.3401 205.019 53.6783 198.615 48.7517C197.426 47.8368 196.321 47.0881 196.16 47.0881C195.999 47.0881 194.746 48.5012 193.375 50.2285ZM78.8825 50.523C77.138 51.0937 75.72 52.0234 74.4572 53.4251C72.9788 55.0661 72.4654 56.4605 72.4654 58.8345C72.4654 60.5494 72.5984 61.0612 73.3537 62.2555C75.0615 64.9557 76.7835 65.7789 83.5999 67.1525C90.8013 68.604 91.1233 68.7543 91.1233 70.6626C91.1233 73.0604 88.3384 74.7714 85.7179 73.9838C84.0775 73.491 84.0167 73.5164 83.4537 74.9256C82.1341 78.2281 81.9968 78.86 82.5175 79.2414C83.3044 79.8187 86.4738 80.3718 88.0974 80.2152C91.4095 79.8962 95.0228 77.2655 96.5118 74.0888C97.3806 72.2354 97.3803 69.015 96.5112 67.1607C95.3881 64.7653 92.689 62.8394 89.5629 62.2024C88.8488 62.057 86.8425 61.6375 85.1046 61.2703C83.3667 60.903 81.4708 60.505 80.8915 60.3861C79.162 60.0306 78.4828 59.5303 78.4937 58.6199C78.5063 57.5456 79.0125 56.9279 80.2255 56.5073C80.9096 56.2704 81.46 56.2577 82.0083 56.4668C83.0342 56.8579 83.3655 56.5139 84.2102 54.1795C85.321 51.1109 85.3204 51.1009 84.0068 50.7216C82.0709 50.1627 80.2054 50.0903 78.8825 50.523ZM199.343 56.4198C202.566 59.0342 202.972 61.4356 200.642 64.0905C198.552 66.4708 196.698 66.6027 193.73 64.5818C191.155 62.8289 191.142 62.7927 192.457 61.0557C194.795 57.9684 197.208 54.9611 197.357 54.9478C197.442 54.9402 198.336 55.6026 199.343 56.4198ZM60.199 74.9742C53.3199 82.1899 47.7102 90.3031 43.3349 99.3653C42.4743 101.147 41.7701 102.677 41.7701 102.763C41.7701 102.85 41.5143 103.496 41.2016 104.2C39.3611 108.34 37.1875 115.4 36.0692 120.869C35.8655 121.865 35.6286 123.019 35.5429 123.434C35.0189 125.97 34.3933 131.859 34.0553 137.437C33.6987 143.326 35.1131 155.753 36.9269 162.663C38.1784 167.432 39.0665 170.194 40.5654 173.979C42.4027 178.618 45.0557 184.084 45.471 184.087C45.8213 184.089 47.1661 182.492 47.1773 182.061C47.1827 181.859 46.6726 180.636 46.0443 179.345C43.1586 173.414 40.5706 165.837 39.0575 158.891C38.913 158.227 38.7045 157.276 38.594 156.778C37.8935 153.62 36.969 143.857 36.9654 139.578C36.9588 131.84 38.6623 120.528 40.8736 113.627C41.0331 113.129 41.3587 112.11 41.5971 111.363C45.4779 99.2063 52.6206 87.2921 62.2402 76.929L65.2125 73.727L64.3838 72.9307C63.9279 72.4925 63.409 72.1343 63.2309 72.1343C63.0524 72.1343 61.6883 73.4123 60.199 74.9742ZM216.966 72.8326C216.606 73.2167 216.312 73.638 216.312 73.7687C216.312 73.899 217.775 75.5877 219.563 77.5211C227.623 86.2356 232.821 94.3232 237.531 105.479C239.421 109.957 241.618 117.263 242.476 121.925C242.674 123.004 242.905 124.158 242.988 124.49C243.263 125.585 243.669 129.252 244.008 133.694C244.515 140.35 244.009 149.782 242.81 156.024C241.853 161.001 241.943 160.606 240.855 164.597C239.67 168.944 237.478 174.709 235.361 179.044C234.649 180.502 234.067 181.815 234.067 181.963C234.067 182.325 235.563 184.088 235.87 184.088C236.2 184.088 239.151 178.003 240.625 174.281C243.646 166.652 245.397 159.536 246.699 149.599C247.102 146.526 247.1 133.015 246.696 129.922C245.822 123.224 244.697 117.645 243.319 113.174C239.7 101.439 234.469 91.3653 227.049 81.8435C224.27 78.2767 218.538 72.1343 217.989 72.1343C217.786 72.1343 217.326 72.4487 216.966 72.8326ZM106.08 81.6229C104.248 82.7129 104.269 82.6537 104.645 85.7592C105.033 88.9657 105.398 92.2905 105.865 96.8788C106.287 101.036 106.75 104.502 106.904 104.655C107.071 104.824 111.111 102.439 111.489 101.949C111.679 101.703 111.707 100.71 111.566 99.2929C111.441 98.0481 111.183 95.4883 110.992 93.6047C110.8 91.7208 110.717 90.106 110.807 90.0158C110.897 89.9259 111.143 89.982 111.354 90.1407C111.565 90.2992 113.091 91.432 114.747 92.6577C116.402 93.8835 118.343 95.3259 119.06 95.8633C119.877 96.4756 120.551 96.7698 120.865 96.6509C121.326 96.4771 124.063 94.8929 125.127 94.1846C125.656 93.8328 126.11 94.2254 120.163 89.8948C117.846 88.2074 115.273 86.3271 114.446 85.716C108.854 81.5885 107.849 80.8884 107.554 80.9138C107.372 80.9295 106.709 81.2484 106.08 81.6229ZM170.57 83.4718C168.666 84.8834 166.432 86.5335 165.604 87.1388C163.33 88.8024 161.323 90.272 158.9 92.0494C157.695 92.9329 156.757 93.8038 156.816 93.9849C156.876 94.1656 157.92 94.8826 159.137 95.5776C160.988 96.6347 161.452 96.787 161.973 96.5082C162.315 96.325 164.471 94.7583 166.763 93.0262C169.055 91.2944 171.03 89.9929 171.152 90.1341C171.274 90.2753 171.278 91.3414 171.161 92.5032C170.572 98.3496 170.236 101.215 170.115 101.411C170.042 101.529 170.216 101.829 170.502 102.077C171.17 102.657 175.087 104.829 175.203 104.684C175.289 104.576 175.704 101.059 176.303 95.37C176.469 93.7933 176.731 91.349 176.884 89.9383C177.038 88.5275 177.249 86.325 177.352 85.0437L177.541 82.7144L176.103 81.7997C175.312 81.297 174.522 80.8899 174.348 80.8954C174.173 80.9008 172.473 82.0602 170.57 83.4718ZM69.8277 82.3278C69.1217 82.9452 68.546 83.5454 68.5487 83.6619C68.5511 83.7781 67.7407 84.6906 66.7476 85.6894C65.7545 86.6883 64.9399 87.6117 64.9375 87.7411C64.9348 87.8709 64.2577 88.7167 63.4328 89.6208C62.6077 90.5249 61.9327 91.4118 61.9327 91.591C61.9327 91.7706 61.6618 92.1131 61.3308 92.3523C60.9998 92.5916 60.7289 92.9354 60.7289 93.1164C60.7289 93.2975 60.4921 93.7088 60.2023 94.0304C59.9125 94.3524 59.4834 94.9891 59.2486 95.4454C59.0139 95.9017 58.7091 96.2753 58.5715 96.2753C58.434 96.2753 58.3215 96.4847 58.3215 96.7406C58.3215 96.9965 58.0506 97.4974 57.7196 97.8535C57.3886 98.2098 57.1177 98.6794 57.1177 98.8973C57.1177 99.1148 56.9823 99.2929 56.8168 99.2929C56.6513 99.2929 56.5159 99.5645 56.5159 99.8964C56.5159 100.228 56.3804 100.5 56.2149 100.5C56.0494 100.5 55.914 100.771 55.914 101.103C55.914 101.435 55.8123 101.708 55.6883 101.709C55.418 101.712 54.7103 103.174 54.7103 103.728C54.7103 103.945 54.5748 104.121 54.4093 104.121C54.2438 104.121 54.1084 104.393 54.1084 104.725C54.1084 105.057 53.973 105.328 53.8074 105.328C53.6419 105.328 53.5065 105.6 53.5065 105.932C53.5065 106.264 53.3711 106.535 53.2056 106.535C53.0401 106.535 52.9046 106.807 52.9046 107.139C52.9046 107.471 52.7692 107.742 52.6037 107.742C52.4382 107.742 52.3028 108.15 52.3028 108.647C52.3028 109.145 52.1674 109.553 52.0018 109.553C51.8363 109.553 51.7009 109.824 51.7009 110.156C51.7009 110.488 51.5655 110.76 51.4 110.76C51.2345 110.76 51.099 111.091 51.099 111.496C51.099 111.902 50.9636 112.317 50.7981 112.42C50.6326 112.522 50.4972 113.005 50.4972 113.493C50.4972 113.982 50.3618 114.381 50.1962 114.381C50.0307 114.381 49.8953 114.788 49.8953 115.286C49.8953 115.784 49.7599 116.192 49.5944 116.192C49.4289 116.192 49.2934 116.599 49.2934 117.097C49.2934 117.595 49.158 118.002 48.9925 118.002C48.827 118.002 48.6916 118.545 48.6916 119.209C48.6916 119.873 48.5562 120.416 48.3906 120.416C48.2251 120.416 48.0897 120.883 48.0897 121.455C48.0897 122.026 47.9543 122.577 47.7888 122.679C47.6233 122.782 47.4878 123.537 47.4878 124.357C47.4878 125.177 47.3524 125.848 47.1869 125.848C47.0202 125.848 46.886 126.647 46.886 127.641C46.886 128.627 46.7505 129.517 46.585 129.62C46.4141 129.726 46.2841 131.227 46.2841 133.09C46.2841 134.954 46.1541 136.455 45.9832 136.56C45.8107 136.667 45.6822 138.229 45.6822 140.217C45.6822 142.454 45.7891 143.621 45.9832 143.501C46.1773 143.381 46.2841 144.598 46.2841 146.936C46.2841 149.024 46.4114 150.636 46.585 150.743C46.7505 150.846 46.886 151.668 46.886 152.572C46.886 153.475 47.0214 154.214 47.1869 154.214C47.3524 154.214 47.4878 154.892 47.4878 155.722C47.4878 156.552 47.6233 157.231 47.7888 157.231C47.9543 157.231 48.0897 157.834 48.0897 158.571C48.0897 159.308 48.2251 159.995 48.3906 160.098C48.5562 160.2 48.6916 160.684 48.6916 161.172C48.6916 161.66 48.827 162.059 48.9925 162.059C49.158 162.059 49.2934 162.459 49.2934 162.947C49.2934 163.435 49.4289 163.918 49.5944 164.021C49.7599 164.123 49.8953 164.674 49.8953 165.246C49.8953 165.817 50.0307 166.284 50.1962 166.284C50.3618 166.284 50.4972 166.547 50.4972 166.87C50.4972 167.192 50.6326 167.539 50.7981 167.642C50.9636 167.745 51.099 168.152 51.099 168.547C51.099 168.943 51.2345 169.35 51.4 169.452C51.5655 169.555 51.7009 169.97 51.7009 170.376C51.7009 170.781 51.8363 171.112 52.0018 171.112C52.1674 171.112 52.3028 171.384 52.3028 171.716C52.3028 172.048 52.4382 172.319 52.6037 172.319C52.7692 172.319 52.9046 172.591 52.9046 172.923C52.9046 173.255 53.0401 173.526 53.2056 173.526C53.3711 173.526 53.5065 173.784 53.5065 174.099C53.5065 174.568 55.0599 177.9 55.4701 178.312C55.533 178.375 55.7939 178.216 56.05 177.959C56.5724 177.436 56.6763 176.544 56.2149 176.544C56.0494 176.544 55.914 176.272 55.914 175.94C55.914 175.608 55.7786 175.337 55.6131 175.337C55.4475 175.337 55.3121 175.065 55.3121 174.733C55.3121 174.401 55.1767 174.13 55.0112 174.13C54.8457 174.13 54.7103 173.858 54.7103 173.526C54.7103 173.194 54.5748 172.923 54.4093 172.923C54.2438 172.923 54.1084 172.723 54.1084 172.479C54.1084 172.235 53.8375 171.552 53.5065 170.961C53.1755 170.37 52.9046 169.627 52.9046 169.31C52.9046 168.993 52.7692 168.65 52.6037 168.547C52.4382 168.445 52.3028 168.029 52.3028 167.624C52.3028 167.219 52.1674 166.887 52.0018 166.887C51.8363 166.887 51.7009 166.48 51.7009 165.982C51.7009 165.484 51.5655 165.077 51.4 165.077C51.2345 165.077 51.099 164.678 51.099 164.189C51.099 163.701 50.9636 163.218 50.7981 163.115C50.6326 163.013 50.4972 162.462 50.4972 161.891C50.4972 161.319 50.3618 160.852 50.1962 160.852C50.0307 160.852 49.8953 160.309 49.8953 159.645C49.8953 158.981 49.7599 158.438 49.5944 158.438C49.4289 158.438 49.2934 157.903 49.2934 157.249C49.2934 156.595 49.158 155.976 48.9925 155.873C48.827 155.771 48.6916 154.956 48.6916 154.063C48.6916 153.169 48.5562 152.355 48.3906 152.252C48.2251 152.149 48.0897 150.919 48.0897 149.518C48.0897 148.021 47.9657 146.971 47.7888 146.971C47.5974 146.971 47.4878 144.557 47.4878 140.332C47.4878 136.108 47.5974 133.694 47.7888 133.694C47.9681 133.694 48.0897 132.543 48.0897 130.845C48.0897 129.271 48.2245 127.912 48.3906 127.809C48.5562 127.707 48.6916 126.952 48.6916 126.132C48.6916 125.312 48.827 124.641 48.9925 124.641C49.158 124.641 49.2934 124.038 49.2934 123.301C49.2934 122.564 49.4289 121.877 49.5944 121.774C49.7599 121.672 49.8953 121.053 49.8953 120.398C49.8953 119.744 50.0307 119.209 50.1962 119.209C50.3618 119.209 50.4972 118.81 50.4972 118.322C50.4972 117.833 50.6326 117.35 50.7981 117.248C50.9636 117.145 51.099 116.67 51.099 116.192C51.099 115.713 51.2345 115.238 51.4 115.135C51.5655 115.033 51.7009 114.683 51.7009 114.359C51.7009 114.035 51.8363 113.5 52.0018 113.17C52.1674 112.84 52.4382 112.301 52.6037 111.971C52.7692 111.641 52.9046 111.098 52.9046 110.764C52.9046 110.43 53.0401 110.156 53.2056 110.156C53.3711 110.156 53.5065 109.893 53.5065 109.571C53.5065 109.248 53.6419 108.901 53.8074 108.798C53.973 108.696 54.1084 108.281 54.1084 107.875C54.1084 107.47 54.2438 107.139 54.4093 107.139C54.5748 107.139 54.7103 106.867 54.7103 106.535C54.7103 106.203 54.8457 105.932 55.0112 105.932C55.1767 105.932 55.3121 105.66 55.3121 105.328C55.3121 104.996 55.4475 104.725 55.6131 104.725C55.7786 104.725 55.914 104.453 55.914 104.121C55.914 103.789 56.0494 103.518 56.2149 103.518C56.3804 103.518 56.5159 103.246 56.5159 102.914C56.5159 102.582 56.6513 102.31 56.8168 102.31C56.9823 102.31 57.1177 102.039 57.1177 101.707C57.1177 101.375 57.2531 101.103 57.4187 101.103C57.5842 101.103 57.7196 100.832 57.7196 100.5C57.7196 100.168 57.855 99.8964 58.0205 99.8964C58.186 99.8964 58.3215 99.7184 58.3215 99.5008C58.3215 99.2829 58.5583 98.8417 58.8481 98.5201C59.1379 98.1981 59.567 97.5614 59.8018 97.1051C60.0365 96.6488 60.3413 96.2753 60.4789 96.2753C60.6164 96.2753 60.7289 96.0335 60.7289 95.7384C60.7289 95.443 60.9998 95.0057 61.3308 94.7664C61.6618 94.5271 61.933 94.1916 61.9333 94.0208C61.9339 93.85 62.3398 93.235 62.8355 92.6541C63.3311 92.0732 63.7371 91.4827 63.7377 91.3418C63.738 91.2008 64.1445 90.705 64.6411 90.24C65.1376 89.775 65.5439 89.2376 65.5439 89.0459C65.5439 88.8546 66.3564 87.898 67.3495 86.9206C68.3426 85.9432 69.1551 85.0286 69.1551 84.888C69.1551 84.7474 69.7536 84.0433 70.4849 83.3233C71.2375 82.5828 71.7461 81.835 71.6564 81.6009C71.4295 81.0079 71.2595 81.0755 69.8277 82.3278ZM209.504 81.6259C209.398 81.9051 210.224 82.9449 211.771 84.48C213.11 85.808 214.205 87.0226 214.205 87.1789C214.205 87.3353 214.882 88.1564 215.71 89.004C216.538 89.8513 217.215 90.6933 217.215 90.8749C217.215 91.0563 217.621 91.5856 218.117 92.0506C218.614 92.5156 219.02 93.0835 219.02 93.312C219.02 93.5407 219.291 93.9236 219.622 94.1629C219.953 94.4022 220.224 94.8096 220.224 95.0682C220.224 95.3268 220.495 95.7342 220.826 95.9735C221.157 96.2128 221.428 96.6389 221.428 96.9201C221.428 97.2017 221.529 97.4772 221.653 97.5327C221.936 97.6585 222.913 99.2657 223.136 99.9718C223.228 100.262 223.423 100.5 223.569 100.5C223.715 100.5 223.835 100.771 223.835 101.103C223.835 101.435 223.971 101.707 224.136 101.707C224.302 101.707 224.437 101.979 224.437 102.31C224.437 102.642 224.572 102.914 224.738 102.914C224.903 102.914 225.039 103.186 225.039 103.518C225.039 103.849 225.174 104.121 225.34 104.121C225.505 104.121 225.641 104.393 225.641 104.725C225.641 105.057 225.776 105.328 225.942 105.328C226.107 105.328 226.243 105.6 226.243 105.932C226.243 106.264 226.378 106.535 226.544 106.535C226.709 106.535 226.844 106.807 226.844 107.139C226.844 107.471 226.98 107.742 227.145 107.742C227.311 107.742 227.446 108.014 227.446 108.346C227.446 108.678 227.582 108.949 227.747 108.949C227.913 108.949 228.048 109.357 228.048 109.855C228.048 110.352 228.184 110.76 228.349 110.76C228.515 110.76 228.65 111.167 228.65 111.665C228.65 112.163 228.786 112.57 228.951 112.57C229.117 112.57 229.252 112.842 229.252 113.174C229.252 113.506 229.387 113.777 229.553 113.777C229.718 113.777 229.854 114.177 229.854 114.665C229.854 115.153 229.989 115.636 230.155 115.739C230.32 115.841 230.456 116.392 230.456 116.964C230.456 117.535 230.591 118.002 230.757 118.002C230.922 118.002 231.058 118.545 231.058 119.209C231.058 119.873 231.193 120.416 231.359 120.416C231.524 120.416 231.659 120.959 231.659 121.623C231.659 122.287 231.795 122.83 231.96 122.83C232.126 122.83 232.261 123.501 232.261 124.321C232.261 125.141 232.397 125.896 232.562 125.999C232.728 126.101 232.863 127.052 232.863 128.111C232.863 129.17 232.999 130.121 233.164 130.223C233.346 130.336 233.465 132.44 233.465 135.522C233.465 138.729 233.577 140.634 233.766 140.634C233.932 140.634 234.067 140.898 234.067 141.22C234.067 141.542 233.932 141.89 233.766 141.992C233.591 142.101 233.465 143.8 233.465 146.066C233.465 148.332 233.34 150.031 233.164 150.14C232.999 150.242 232.863 151.201 232.863 152.27C232.863 153.364 232.732 154.214 232.562 154.214C232.397 154.214 232.261 154.892 232.261 155.722C232.261 156.552 232.126 157.231 231.96 157.231C231.795 157.231 231.659 157.766 231.659 158.42C231.659 159.075 231.524 159.694 231.359 159.796C231.193 159.899 231.058 160.51 231.058 161.154C231.058 161.798 230.922 162.409 230.757 162.512C230.591 162.615 230.456 163.098 230.456 163.586C230.456 164.074 230.32 164.473 230.155 164.473C229.989 164.473 229.854 164.805 229.854 165.21C229.854 165.615 229.718 166.031 229.553 166.133C229.387 166.236 229.252 166.719 229.252 167.207C229.252 167.695 229.117 168.095 228.951 168.095C228.786 168.095 228.65 168.366 228.65 168.698C228.65 169.03 228.515 169.302 228.349 169.302C228.184 169.302 228.048 169.633 228.048 170.038C228.048 170.443 227.913 170.859 227.747 170.961C227.582 171.064 227.446 171.411 227.446 171.733C227.446 172.056 227.311 172.319 227.145 172.319C226.98 172.319 226.842 172.625 226.838 172.998C226.834 173.372 226.566 174.017 226.243 174.432C225.919 174.846 225.651 175.492 225.647 175.865C225.644 176.238 225.505 176.544 225.34 176.544C224.893 176.544 224.976 177.429 225.469 177.923C226.052 178.508 226.243 178.466 226.243 177.751C226.243 177.419 226.378 177.147 226.544 177.147C226.709 177.147 226.844 176.876 226.844 176.544C226.844 176.212 226.98 175.94 227.145 175.94C227.311 175.94 227.446 175.609 227.446 175.204C227.446 174.798 227.582 174.383 227.747 174.281C227.913 174.178 228.048 173.831 228.048 173.508C228.048 173.186 228.184 172.923 228.349 172.923C228.515 172.923 228.65 172.651 228.65 172.319C228.65 171.987 228.786 171.716 228.951 171.716C229.117 171.716 229.252 171.384 229.252 170.979C229.252 170.574 229.387 170.159 229.553 170.056C229.718 169.953 229.854 169.606 229.854 169.284C229.854 168.962 229.989 168.698 230.155 168.698C230.32 168.698 230.456 168.291 230.456 167.793C230.456 167.295 230.591 166.887 230.757 166.887C230.922 166.887 231.058 166.48 231.058 165.982C231.058 165.484 231.193 165.077 231.359 165.077C231.524 165.077 231.659 164.67 231.659 164.172C231.659 163.674 231.795 163.266 231.96 163.266C232.126 163.266 232.261 162.859 232.261 162.361C232.261 161.863 232.397 161.456 232.562 161.456C232.728 161.456 232.863 160.913 232.863 160.249C232.863 159.585 232.999 159.042 233.164 159.042C233.33 159.042 233.465 158.363 233.465 157.533C233.465 156.703 233.6 156.024 233.766 156.024C233.932 156.024 234.067 155.345 234.067 154.515C234.067 153.685 234.202 153.006 234.368 153.006C234.543 153.006 234.669 152.001 234.669 150.592C234.669 149.184 234.794 148.178 234.97 148.178C235.163 148.178 235.271 145.261 235.271 140.031C235.271 134.8 235.163 131.883 234.97 131.883C234.794 131.883 234.669 130.877 234.669 129.469C234.669 128.061 234.543 127.055 234.368 127.055C234.202 127.055 234.067 126.384 234.067 125.564C234.067 124.744 233.932 123.989 233.766 123.886C233.6 123.784 233.465 123.173 233.465 122.529C233.465 121.884 233.33 121.273 233.164 121.171C232.999 121.068 232.863 120.593 232.863 120.114C232.863 119.636 232.728 119.161 232.562 119.058C232.397 118.956 232.261 118.405 232.261 117.833C232.261 117.262 232.126 116.795 231.96 116.795C231.795 116.795 231.659 116.396 231.659 115.908C231.659 115.419 231.524 114.936 231.359 114.834C231.193 114.731 231.058 114.316 231.058 113.911C231.058 113.505 230.922 113.174 230.757 113.174C230.591 113.174 230.456 112.767 230.456 112.269C230.456 111.771 230.32 111.363 230.155 111.363C229.989 111.363 229.854 111.092 229.854 110.76C229.854 110.428 229.718 110.156 229.553 110.156C229.387 110.156 229.252 109.749 229.252 109.251C229.252 108.753 229.117 108.346 228.951 108.346C228.786 108.346 228.65 108.074 228.65 107.742C228.65 107.41 228.515 107.139 228.349 107.139C228.184 107.139 228.048 106.867 228.048 106.535C228.048 106.203 227.913 105.932 227.747 105.932C227.582 105.932 227.446 105.66 227.446 105.328C227.446 104.996 227.311 104.725 227.145 104.725C226.98 104.725 226.844 104.453 226.844 104.121C226.844 103.789 226.709 103.518 226.544 103.518C226.378 103.518 226.243 103.246 226.243 102.914C226.243 102.582 226.107 102.31 225.942 102.31C225.776 102.31 225.641 102.039 225.641 101.707C225.641 101.375 225.505 101.103 225.34 101.103C225.174 101.103 225.039 100.832 225.039 100.5C225.039 100.168 224.903 99.8964 224.738 99.8964C224.572 99.8964 224.437 99.6547 224.437 99.3596C224.437 99.0641 224.166 98.6269 223.835 98.3876C223.504 98.1483 223.233 97.711 223.233 97.4156C223.233 97.1205 223.098 96.8788 222.932 96.8788C222.767 96.8788 222.631 96.6371 222.631 96.3419C222.631 96.0465 222.361 95.6093 222.03 95.37C221.699 95.1307 221.428 94.7233 221.428 94.4647C221.428 94.2061 221.157 93.7987 220.826 93.5594C220.495 93.3201 220.224 92.9797 220.224 92.8029C220.224 92.626 219.686 91.8753 219.029 91.1344C218.371 90.3936 217.83 89.6676 217.825 89.5209C217.82 89.3746 217.573 89.0351 217.276 88.7665C216.978 88.4982 216.404 87.8033 215.999 87.2224C215.047 85.8551 210.397 81.1872 209.987 81.1872C209.814 81.1872 209.597 81.3845 209.504 81.6259ZM150.471 95.8362C149.748 97.1087 149.276 98.2675 149.397 98.4733C149.516 98.6752 151.479 101.149 153.76 103.97C156.04 106.792 160.519 112.359 163.712 116.342C166.905 120.326 169.698 123.585 169.919 123.585C170.139 123.585 170.879 122.551 171.564 121.289L172.808 118.992L169.226 114.513C164.979 109.201 164.994 109.22 163.648 107.609C163.069 106.916 160.3 103.471 157.494 99.954C154.688 96.437 152.251 93.5609 152.077 93.5627C151.904 93.5642 151.181 94.5875 150.471 95.8362ZM132.953 102.469C132.705 102.517 131.486 102.714 130.245 102.905C129.003 103.097 127.243 103.376 126.333 103.525C125.422 103.674 123.729 103.948 122.571 104.133C121.412 104.317 119.72 104.588 118.809 104.735C117.899 104.882 116.206 105.149 115.048 105.328C113.889 105.507 112.196 105.778 111.286 105.931C110.376 106.084 108.141 106.433 106.32 106.707C104.5 106.981 102.892 107.316 102.747 107.45C102.601 107.587 102.739 108.073 103.059 108.549C103.375 109.018 103.804 109.741 104.013 110.156C104.221 110.571 104.642 111.241 104.947 111.644C105.496 112.369 105.528 112.374 107.717 112.01C108.935 111.808 110.744 111.519 111.737 111.368C114.518 110.944 117.586 110.462 119.411 110.164C120.321 110.014 122.082 109.74 123.323 109.553C124.565 109.366 126.325 109.09 127.235 108.938C128.146 108.787 129.906 108.514 131.147 108.331C132.389 108.147 133.972 107.872 134.666 107.719C135.36 107.566 136.319 107.44 136.798 107.44C137.276 107.44 137.743 107.364 137.836 107.272C137.928 107.179 137.395 106.025 136.65 104.707C135.233 102.198 135.014 102.065 132.953 102.469ZM132.647 112.06C130.735 113.146 130.379 113.475 130.287 114.237C130.176 115.155 130.625 119.638 131.174 123.101C131.67 126.234 131.882 126.301 124.893 121.089L121.498 118.556L119.176 119.87C117.898 120.593 116.853 121.36 116.853 121.575C116.853 121.791 118.836 123.417 121.259 125.19C123.683 126.963 127.59 129.822 129.941 131.545L134.217 134.676L135.466 133.988C137.565 132.832 137.558 132.843 137.353 130.836C137.093 128.29 136.655 124.096 136.296 120.718C136.129 119.141 135.844 116.358 135.663 114.534C135.482 112.709 135.237 111.118 135.117 110.998C134.997 110.878 133.885 111.355 132.647 112.06ZM146.669 111.439C146.593 111.812 146.459 113 146.372 114.079C146.214 116.035 145.905 119.07 145.283 124.792C144.657 130.549 144.516 132.507 144.708 132.818C144.814 132.989 145.225 133.301 145.622 133.509C146.02 133.718 146.642 134.076 147.006 134.306C147.742 134.772 147.525 134.899 153.417 130.564C154.989 129.407 156.987 127.941 157.855 127.305C158.724 126.67 160.146 125.628 161.015 124.991C161.884 124.353 163.238 123.379 164.025 122.827C164.811 122.275 165.454 121.722 165.454 121.598C165.454 121.475 164.361 120.742 163.025 119.969C160.779 118.671 160.547 118.598 159.94 119.005C159.58 119.247 157.457 120.816 155.222 122.491C152.988 124.166 151.038 125.539 150.89 125.542C150.631 125.546 150.701 124.489 151.292 119.511C151.439 118.266 151.656 116.421 151.774 115.41L151.987 113.572L149.556 112.166C148.219 111.393 147.054 110.76 146.966 110.76C146.879 110.76 146.745 111.065 146.669 111.439ZM104.389 126.225C104.246 126.599 103.762 127.855 103.314 129.016C102.866 130.178 101.958 132.555 101.297 134.297C100.636 136.04 99.9849 137.737 99.8503 138.069C99.6132 138.655 98.3571 141.948 95.8798 148.48C95.2187 150.223 94.5684 151.92 94.4347 152.252C93.1603 155.413 92.8732 156.391 93.1404 156.659C93.3029 156.822 94.5666 156.915 95.9484 156.867L98.4603 156.778L99.6355 153.761C100.282 152.101 100.92 150.472 101.054 150.14C101.189 149.808 101.843 148.11 102.509 146.368C105.708 138 107.548 133.227 108.896 129.805C109.705 127.749 110.295 125.95 110.207 125.807C110.119 125.664 108.832 125.546 107.348 125.546C104.828 125.546 104.633 125.591 104.389 126.225ZM181.78 125.746C181.573 125.83 181.404 126.057 181.405 126.25C181.406 126.444 180.877 127.96 180.231 129.62C178.496 134.074 173.733 146.481 171.715 151.799C171.054 153.542 170.375 155.261 170.205 155.618C169.692 156.702 170.144 156.929 172.808 156.929C175.624 156.929 175.6 156.945 176.51 154.515C176.852 153.602 177.836 151.022 178.696 148.782C179.556 146.541 180.775 143.35 181.403 141.69C182.698 138.275 185.549 130.835 185.913 129.922C187.102 126.939 187.394 126.046 187.251 125.814C187.079 125.536 182.442 125.478 181.78 125.746ZM91.4242 130.411C90.8449 130.713 89.6261 131.288 88.7158 131.689C87.8055 132.091 86.3836 132.721 85.556 133.09C82.2108 134.582 80.9357 135.141 78.6345 136.125C77.3104 136.691 75.4145 137.563 74.4214 138.064L72.6158 138.975L72.5258 140.871L72.4362 142.767L73.88 143.395C74.6745 143.741 76.3023 144.483 77.4976 145.045C78.6926 145.606 79.7287 146.066 79.7997 146.066C79.8707 146.066 81.0597 146.586 82.4416 147.223C83.8235 147.859 86.0375 148.844 87.3616 149.411C88.6857 149.978 90.3748 150.744 91.1151 151.114C91.8554 151.483 92.572 151.674 92.7074 151.539C92.8428 151.403 92.9141 150.093 92.866 148.629C92.7691 145.682 92.7688 145.682 89.9195 144.562C89.3402 144.335 88.1892 143.85 87.3616 143.486C81.5686 140.934 81.6977 141.016 82.4714 140.417C82.6785 140.257 83.3893 139.914 84.0513 139.655C84.7134 139.395 86.2707 138.718 87.5121 138.15C88.7534 137.582 90.243 136.936 90.8223 136.713C92.7835 135.962 92.9289 135.69 92.9289 132.759C92.9289 131.301 92.8272 130.053 92.7032 129.985C92.5792 129.917 92.0035 130.109 91.4242 130.411ZM111.952 132.978L112.038 135.883L116.101 137.671C122.125 140.322 122.721 140.613 122.721 140.899C122.721 141.043 121.145 141.823 119.218 142.633C117.292 143.442 114.888 144.512 113.877 145.01L112.038 145.915L111.952 148.706C111.881 150.982 111.945 151.498 112.301 151.498C112.541 151.498 113.731 151.037 114.946 150.473C118.662 148.748 120.625 147.877 120.793 147.877C120.881 147.877 121.791 147.486 122.816 147.008C124.766 146.099 126.569 145.284 128.966 144.23C131.956 142.916 131.891 142.989 131.988 140.85L132.076 138.912L130.093 137.963C129.003 137.44 128.054 137.013 127.983 137.013C127.913 137.013 127.14 136.689 126.266 136.292C125.392 135.896 124 135.27 123.173 134.9C122.345 134.531 121.059 133.952 120.314 133.614C115.155 131.274 112.385 130.073 112.144 130.073C111.987 130.073 111.903 131.336 111.952 132.978ZM164.074 132.434C158.944 134.745 157.444 135.41 154.321 136.754C153.412 137.145 151.99 137.805 151.161 138.22L149.655 138.975L149.566 140.847L149.476 142.719L150.845 143.336C152.143 143.922 153.286 144.433 156.2 145.73C156.904 146.043 158.122 146.586 158.909 146.937C161.312 148.01 163.12 148.815 164.852 149.586C165.762 149.991 167.184 150.641 168.012 151.03C168.839 151.419 169.624 151.637 169.755 151.515C169.886 151.392 169.953 150.088 169.905 148.617L169.818 145.943L168.764 145.41C167.604 144.823 165.064 143.685 163.197 142.915C160.481 141.796 159.134 141.116 159.134 140.863C159.134 140.717 160.049 140.189 161.166 139.691C162.283 139.192 163.603 138.604 164.1 138.383C164.596 138.163 165.612 137.71 166.357 137.378C167.102 137.046 168.219 136.563 168.839 136.305L169.968 135.837V132.955C169.968 130.838 169.868 130.079 169.592 130.096C169.385 130.108 166.902 131.161 164.074 132.434ZM188.927 132.767C188.927 134.814 189.041 135.575 189.4 135.935C189.66 136.196 189.994 136.41 190.143 136.41C190.292 136.41 191.196 136.764 192.153 137.197C193.109 137.629 194.298 138.164 194.795 138.384C199.006 140.253 199.76 140.629 199.76 140.863C199.76 141.115 198.422 141.792 195.698 142.916C194.518 143.403 193.487 143.856 190.693 145.118C189.926 145.464 189.215 145.965 189.113 146.233C188.797 147.059 188.905 151.147 189.25 151.36C189.427 151.47 190.409 151.189 191.431 150.736C192.454 150.282 193.866 149.657 194.569 149.346C195.273 149.036 196.458 148.51 197.202 148.178C197.947 147.846 199.132 147.319 199.836 147.006C204.018 145.144 206.505 144.033 208.05 143.336L209.418 142.719L209.329 140.847L209.24 138.975L207.712 138.22C206.872 137.805 205.585 137.208 204.853 136.893C204.121 136.578 202.98 136.076 202.318 135.779C196.324 133.081 189.402 130.073 189.189 130.073C189.045 130.073 188.927 131.285 188.927 132.767ZM133.533 147.187C133.131 147.461 131.787 148.431 130.546 149.342C129.304 150.254 127.578 151.519 126.709 152.154C117.856 158.622 116.853 159.393 116.853 159.738C116.853 160.091 120.812 162.646 121.367 162.651C121.533 162.652 123.759 161.092 126.314 159.184C128.869 157.277 131.075 155.831 131.215 155.971C131.356 156.112 131.337 157.166 131.175 158.313C130.466 163.31 130.241 165.313 130.246 166.586L130.251 167.944L132.54 169.252C133.91 170.035 134.938 170.45 135.101 170.286C135.252 170.135 135.518 168.528 135.693 166.715C136.076 162.756 136.387 159.758 136.894 155.119C137.103 153.21 137.284 150.902 137.295 149.99L137.317 148.331L135.79 147.51C134.337 146.728 134.229 146.712 133.533 147.187ZM146.947 147.065C146.616 147.262 145.934 147.713 145.431 148.068L144.518 148.714L144.745 151.237C144.976 153.815 145.318 157.149 145.902 162.512C146.082 164.172 146.328 166.575 146.448 167.853C146.567 169.13 146.756 170.268 146.868 170.38C146.98 170.492 148.127 169.985 149.417 169.254L151.761 167.925L151.732 166.576C151.716 165.835 151.543 163.87 151.346 162.21C150.697 156.718 150.622 155.722 150.862 155.722C150.992 155.722 152.873 157.057 155.041 158.689C161.119 163.262 160.23 162.956 162.945 161.413C164.218 160.69 165.296 159.962 165.342 159.796C165.387 159.63 163.923 158.408 162.087 157.08C160.251 155.752 157.36 153.648 155.662 152.403C150.509 148.625 147.984 146.823 147.761 146.764C147.644 146.733 147.278 146.868 146.947 147.065ZM110.559 159.834C109.8 161.1 109.179 162.178 109.179 162.229C109.179 162.365 112.768 166.887 114.897 169.433C115.476 170.126 119.058 174.589 122.857 179.352C126.656 184.114 129.845 188.011 129.945 188.011C130.19 188.011 132.652 183.645 132.652 183.21C132.652 183.02 130.229 179.846 127.268 176.158C116.825 163.153 114.84 160.694 114.152 159.911C113.77 159.476 113.224 158.763 112.939 158.327C112.654 157.89 112.312 157.533 112.179 157.533C112.047 157.533 111.317 158.569 110.559 159.834ZM174.758 169.124C174.645 169.237 172.204 169.66 166.658 170.528C165.582 170.696 163.957 170.959 163.046 171.112C162.136 171.265 160.477 171.532 159.36 171.704C158.243 171.876 156.415 172.16 155.297 172.335C154.18 172.509 152.386 172.789 151.31 172.957C150.234 173.124 148.7 173.389 147.902 173.545C147.103 173.7 146.087 173.83 145.645 173.833C144.341 173.84 143.998 174.196 144.466 175.059C146.669 179.12 146.84 179.327 147.819 179.117C148.798 178.907 151.13 178.516 154.169 178.053C156.044 177.767 158.891 177.315 161.993 176.811C162.986 176.649 164.611 176.394 165.604 176.242C167.48 175.956 170.326 175.505 173.429 175C174.422 174.839 176.091 174.589 177.139 174.445C178.187 174.3 179.131 174.095 179.237 173.989C179.344 173.882 179.041 173.089 178.564 172.227C177.056 169.498 176.616 169 175.716 169C175.258 169 174.827 169.056 174.758 169.124ZM106.503 178.447C106.32 179.502 106.171 180.829 106.172 181.397C106.173 181.964 106.042 183.447 105.88 184.691C105.719 185.936 105.442 188.38 105.266 190.123C105.089 191.866 104.8 194.415 104.623 195.787C104.253 198.647 104.289 198.732 106.339 199.789C107.283 200.276 107.85 200.411 108.128 200.216C108.489 199.963 112.968 196.697 117.004 193.744C117.797 193.163 120.018 191.553 121.938 190.165C123.859 188.777 125.43 187.544 125.43 187.425C125.43 187.305 125.057 187.016 124.602 186.781C124.147 186.546 123.172 185.98 122.437 185.523C121.701 185.066 120.872 184.691 120.594 184.691C120.317 184.691 118.648 185.773 116.885 187.095C112.588 190.319 110.972 191.418 110.793 191.238C110.711 191.156 110.8 189.548 110.992 187.664C111.183 185.78 111.443 183.22 111.57 181.976C111.842 179.31 111.819 179.275 108.835 177.63L106.836 176.528L106.503 178.447ZM173.81 177.302C173.204 177.715 172.631 178.053 172.536 178.053C172.441 178.053 171.846 178.38 171.213 178.781L170.063 179.509L170.295 181.27C171.171 187.908 171.417 191.33 171.018 191.33C170.869 191.33 168.405 189.548 164.06 186.297C162.879 185.414 161.696 184.691 161.431 184.691C160.887 184.691 156.727 187.114 156.727 187.431C156.727 187.67 157.904 188.568 165.003 193.744C168.086 195.993 169.811 197.258 171.924 198.82C173.083 199.677 174.183 200.379 174.369 200.38C174.555 200.382 175.346 200.025 176.127 199.587L177.547 198.792L177.359 196.343C177.256 194.997 177.046 192.809 176.891 191.481C176.737 190.153 176.463 187.641 176.283 185.898C175.656 179.831 175.289 176.995 175.1 176.774C174.996 176.652 174.415 176.889 173.81 177.302ZM207.629 183.033C206.766 184.113 205.988 185.184 205.9 185.413C205.806 185.659 206.15 186.114 206.738 186.523C207.286 186.905 208.218 187.633 208.807 188.142C209.397 188.651 210.345 189.425 210.914 189.863C214.999 193.006 219.02 196.285 219.02 196.472C219.02 196.827 217.305 197.059 212.203 197.39C209.58 197.561 205.606 197.827 203.372 197.983C201.137 198.139 197.849 198.356 196.063 198.465C194.279 198.575 192.751 198.773 192.669 198.905C192.587 199.038 194.116 200.417 196.065 201.968C198.015 203.52 203.66 208.026 208.609 211.982C213.559 215.937 217.825 219.223 218.089 219.283C218.395 219.353 219.114 218.681 220.073 217.428C220.901 216.348 221.62 215.338 221.672 215.185C221.724 215.031 218.771 212.501 215.111 209.562C210.667 205.993 208.556 204.117 208.757 203.915C208.923 203.749 210.859 203.501 213.061 203.364C215.263 203.227 219.028 202.972 221.428 202.799C223.828 202.625 227.74 202.358 230.121 202.206C232.503 202.053 234.576 201.803 234.729 201.65C234.977 201.402 233.285 199.901 229.561 197.064C229.016 196.649 224.289 192.883 219.056 188.695C213.822 184.507 209.463 181.078 209.369 181.075C209.275 181.073 208.491 181.954 207.629 183.033ZM68.4003 183.111C67.5716 183.897 66.1497 185.209 65.2405 186.026C64.3317 186.843 62.8418 188.201 61.9297 189.043C61.0178 189.886 58.8511 191.865 57.1147 193.441C51.421 198.609 50.9865 199.007 49.0831 200.802L47.1992 202.579L49.0295 204.65C50.0364 205.789 50.9492 206.72 51.0578 206.72C51.1668 206.72 51.595 206.414 52.0094 206.041C52.4241 205.668 53.9976 204.242 55.5068 202.873C57.0157 201.503 58.3224 200.383 58.4105 200.383C58.4987 200.383 59.5878 201.393 60.8306 202.627C63.7181 205.494 65.6071 206.418 68.5812 206.418C70.3221 206.418 71.0341 206.256 72.5927 205.502C74.8018 204.433 77.1569 202.184 78.3769 199.976C79.1488 198.58 79.2349 198.145 79.221 195.706C79.1997 191.978 78.7534 191.181 73.4025 185.324C70.6486 182.309 70.0474 181.672 69.9613 181.677C69.9315 181.68 69.2294 182.325 68.4003 183.111ZM71.3462 191.226C73.1858 193.319 73.7193 194.325 73.7193 195.7C73.7193 196.42 73.5538 197.319 73.3516 197.698C72.4314 199.422 70.178 200.984 68.6074 200.985C67.3564 200.987 65.3748 199.656 63.8511 197.792L62.722 196.41L63.7566 195.453C67.6953 191.812 69.6582 190.136 69.992 190.13C70.2038 190.126 70.8132 190.619 71.3462 191.226ZM83.5999 203.25C78.2803 204.735 74.2649 208.662 72.339 214.264C71.2713 217.371 71.9149 222.781 73.7293 225.946C76.9776 231.612 83.6469 234.96 89.5286 233.878C95.2274 232.828 99.7291 229.065 101.981 223.468C102.61 221.904 102.704 221.206 102.67 218.338C102.629 214.773 102.226 213.251 100.572 210.405C98.7095 207.199 94.7534 204.295 90.8199 203.245C88.8557 202.721 85.4868 202.724 83.5999 203.25ZM187.121 205.789C183.395 206.414 179.559 208.854 177.356 212.001C175.844 214.16 175.193 215.527 174.613 217.76C172.685 225.181 177.506 233.482 185.225 236.036C187.858 236.907 192.248 236.812 194.856 235.828C199.554 234.055 202.525 231.036 204.497 226.033C204.661 225.618 204.965 224.325 205.172 223.159C205.496 221.346 205.479 220.69 205.061 218.632C203.919 213.015 200.181 208.526 194.945 206.485C193.106 205.768 189.276 205.427 187.121 205.789ZM89.649 209.164C92.6063 210.122 94.7137 211.887 95.9229 214.415C96.9891 216.645 96.9644 220.441 95.8696 222.575C93.9171 226.38 89.37 228.715 85.6312 227.833C80.8217 226.698 77.8752 223.11 77.8867 218.402C77.8921 216.183 78.3531 214.714 79.6011 212.938C81.8497 209.739 86.2845 208.073 89.649 209.164ZM193.915 212.631C198.654 214.795 200.599 220.853 198.12 225.731C197.383 227.183 195.304 229.117 193.634 229.904C191.629 230.849 188.035 230.824 185.851 229.851C181.756 228.026 179.373 223.009 180.614 218.822C182.397 212.803 188.288 210.061 193.915 212.631ZM110.852 216.089C109.298 216.866 108.397 217.734 107.42 219.394C106.755 220.524 106.623 221.106 106.634 222.864C106.647 224.932 106.713 225.107 109.719 231.101C111.408 234.469 112.791 237.497 112.791 237.829C112.791 238.878 111.461 239.914 110.116 239.914C107.966 239.914 106.505 238.981 105.725 237.11C105.478 236.517 105.155 235.957 105.007 235.865C104.639 235.638 99.7465 237.36 99.6123 237.763C99.5533 237.941 99.9226 238.871 100.433 239.83C102.063 242.893 104.062 244.644 107.047 245.62C109.213 246.328 110.419 246.403 111.918 245.923C115.232 244.863 117.475 242.879 118.351 240.234C119.256 237.505 118.949 236.292 115.716 229.816C114.138 226.657 112.759 223.771 112.651 223.404C112.318 222.263 112.961 221.506 114.265 221.506C115.47 221.506 117.004 222.428 117.004 223.151C117.004 223.368 117.204 223.711 117.448 223.915C117.806 224.213 118.349 224.125 120.232 223.464C121.519 223.013 122.696 222.527 122.848 222.385C123.262 222 121.859 219.438 120.464 218.029C118.656 216.204 116.853 215.469 114.223 215.483C112.672 215.492 111.694 215.667 110.852 216.089ZM162.755 216.255C161.52 216.659 160.4 217.099 160.266 217.233C160.054 217.446 160.948 220.623 162.741 226.033C163.044 226.946 163.858 229.526 164.551 231.766C165.244 234.007 166.056 236.587 166.356 237.5C166.657 238.413 167.407 240.789 168.025 242.781C168.642 244.772 169.235 246.501 169.342 246.623C169.627 246.947 174.501 245.346 174.683 244.868C174.818 244.518 173.687 240.6 171.774 234.784C171.473 233.871 170.661 231.291 169.968 229.05C169.275 226.81 168.464 224.23 168.164 223.317C167.865 222.404 167.181 220.266 166.645 218.564C166.109 216.863 165.52 215.482 165.336 215.496C165.153 215.509 163.991 215.851 162.755 216.255ZM156.093 218.621C156.021 218.694 154.339 218.904 152.357 219.088C150.374 219.272 147.533 219.545 146.044 219.695C144.554 219.845 141.779 220.114 139.878 220.292C137.829 220.484 136.259 220.778 136.025 221.012C135.7 221.339 135.699 221.828 136.022 223.796C136.414 226.182 136.415 226.184 137.317 226.126C137.813 226.095 139.587 225.974 141.258 225.857C144.286 225.646 144.297 225.648 144.489 226.367C144.595 226.764 144.682 227.7 144.684 228.447C144.685 229.194 144.817 230.823 144.978 232.068C145.138 233.313 145.415 235.893 145.594 237.802C145.772 239.71 146.046 242.562 146.204 244.139C146.361 245.715 146.565 247.753 146.656 248.668C146.91 251.223 146.915 251.227 149.848 250.769C151.232 250.554 152.472 250.283 152.605 250.169C152.868 249.942 152.691 247.745 151.305 234.029C150.72 228.245 150.539 225.402 150.734 225.085C150.839 224.916 152.467 224.645 154.352 224.484C156.529 224.298 157.935 224.038 158.203 223.772C158.557 223.421 158.567 222.993 158.268 221.177C158.071 219.98 157.839 218.886 157.752 218.745C157.589 218.48 156.327 218.386 156.093 218.621ZM128.149 219.676C127.977 219.997 127.837 220.805 127.837 221.472C127.837 222.138 127.714 223.335 127.564 224.132C127.414 224.928 127.135 226.938 126.945 228.598C126.754 230.257 126.478 232.498 126.331 233.577C126.184 234.656 125.929 236.625 125.765 237.952C125.016 244.009 124.768 245.917 124.519 247.543C124.373 248.503 124.326 249.479 124.415 249.713C124.568 250.112 125.803 250.344 128.876 250.548L130.065 250.626L130.424 248.665C130.622 247.586 130.941 245.346 131.133 243.686C131.325 242.026 131.6 239.786 131.744 238.707C131.887 237.628 132.157 235.523 132.344 234.029C132.868 229.829 133.193 227.316 133.57 224.524C133.761 223.113 133.87 221.49 133.811 220.916C133.707 219.891 133.674 219.868 131.749 219.502C129.023 218.983 128.505 219.008 128.149 219.676Z" fill="white"/>
<rect x="327" y="69" width="3" height="145" rx="1.5" fill="#241824"/>
<path d="M383.554 174V110.3H413.402C421.046 110.3 426.87 111.817 430.874 114.85C434.878 117.823 436.88 121.827 436.88 126.862C436.88 130.259 436.091 133.171 434.514 135.598C432.937 137.964 430.813 139.814 428.144 141.149C425.535 142.423 422.684 143.06 419.59 143.06L421.228 139.784C424.807 139.784 428.023 140.451 430.874 141.786C433.725 143.06 435.97 144.941 437.608 147.428C439.307 149.915 440.156 153.009 440.156 156.71C440.156 162.17 438.063 166.417 433.877 169.45C429.691 172.483 423.473 174 415.222 174H383.554ZM395.384 164.718H414.494C418.923 164.718 422.32 163.99 424.686 162.534C427.052 161.078 428.235 158.742 428.235 155.527C428.235 152.372 427.052 150.067 424.686 148.611C422.32 147.094 418.923 146.336 414.494 146.336H394.474V137.145H412.128C416.253 137.145 419.408 136.417 421.592 134.961C423.837 133.505 424.959 131.321 424.959 128.409C424.959 125.436 423.837 123.222 421.592 121.766C419.408 120.31 416.253 119.582 412.128 119.582H395.384V164.718ZM503.924 110.3H515.754V174H503.924V110.3ZM470.982 174H459.152V110.3H470.982V174ZM504.834 146.7H469.981V136.599H504.834V146.7ZM539.192 174V110.3H551.022V174H539.192ZM574.622 174V110.3H586.452V163.99H619.758V174H574.622ZM626.547 174L655.212 110.3H666.86L695.616 174H683.24L658.579 116.579H663.311L638.741 174H626.547ZM639.742 159.258L642.927 149.976H677.325L680.51 159.258H639.742ZM710.088 174V110.3H721.918V174H710.088Z" fill="url(#paint1_linear_11_2)"/>
<defs>
<linearGradient id="paint0_linear_11_2" x1="0" y1="141.5" x2="283" y2="141.5" gradientUnits="userSpaceOnUse">
<stop stop-color="#000428"/>
<stop offset="1" stop-color="#004E92"/>
</linearGradient>
<linearGradient id="paint1_linear_11_2" x1="375" y1="141.5" x2="731" y2="141.5" gradientUnits="userSpaceOnUse">
<stop stop-color="#000428"/>
<stop offset="1" stop-color="#004E92"/>
</linearGradient>
</defs>
</svg>
